<svg xmlns="http://www.w3.org/2000/svg" width="5986" height="758"><path d="M0 0 C246.84 0 493.68 0 748 0 C748 246.84 748 493.68 748 748 C703.66897523 748 703.66897523 748 690 746.8125 C689.19778015 746.74753326 688.3955603 746.68256653 687.56903076 746.6156311 C608.40468619 740.2008637 529.82655289 721.57627706 260.3125 568.5 C259.68730469 567.97092041 259.06210937 567.44184082 258.41796875 566.89672852 C256.92586718 565.62020384 255.46009199 564.31301703 254 563 C254 562.67 254 562.34 254 562 C263.06109998 562.87276829 271.97287029 564.49355482 280.9296875 566.09570312 C299.2296548 569.24989003 317.44401695 570.3887621 336 570.3125 C336.97822723 570.31001251 337.95645447 570.30752502 338.96432495 570.30496216 C393.25330058 570.09277744 445.55857164 557.24490438 495.18066406 535.42358398 C498.78965424 533.84765827 502.13101696 532.69311994 506 532 C506.39344101 533.00239464 506.39344101 533.00239464 506.79483032 534.02503967 C509.29422387 540.3926484 511.79409025 546.76007131 514.29445839 553.1272974 C515.57920663 556.39897534 516.86378618 559.67071927 518.14794922 562.94262695 C519.38907032 566.10486748 520.63074523 569.26689015 521.87267303 572.42881393 C522.59773451 574.27540709 523.32209302 576.12227622 524.04644775 577.96914673 C526.0243324 583.00587309 528.0057216 588.04001019 530.04980469 593.05029297 C530.33777924 593.7576207 530.62575378 594.46494843 530.92245483 595.19371033 C531.63912617 596.94555664 532.36287311 598.69450416 533.08740234 600.44311523 C534 603 534 603 534 606 C537.5707206 602.56176197 540.63142133 599.03224563 543.625 595.0625 C544.50322698 593.90573398 545.38215795 592.74950216 546.26171875 591.59375 C546.71208496 591.00078125 547.16245117 590.4078125 547.62646484 589.796875 C549.8688249 586.86339295 552.15220452 583.9625819 554.4375 581.0625 C555.12646362 580.18718628 555.12646362 580.18718628 555.8293457 579.29418945 C557.21905917 577.52906151 558.6094893 575.76449994 560 574 C566.02396237 566.3518218 572.0268049 558.68791823 578 551 C583.53450443 543.87670722 589.0930816 536.77303308 594.67333984 529.68554688 C596.95086206 526.79191173 599.22524007 523.89580677 601.5 521 C602.4166523 519.83332204 603.33331895 518.66665536 604.25 517.5 C604.930625 516.63375 604.930625 516.63375 605.625 515.75 C620.75 496.5 620.75 496.5 622.12426758 494.75097656 C623.04343313 493.58109984 623.96254095 492.41117777 624.8815918 491.24121094 C627.13456094 488.37328843 629.38843723 485.5060901 631.64453125 482.640625 C636.78426392 476.11014114 641.90120342 469.56250641 647 463 C652.53450443 455.87670722 658.0930816 448.77303308 663.67333984 441.68554688 C665.95086206 438.79191173 668.22524007 435.89580677 670.5 433 C671.4166523 431.83332204 672.33331895 430.66665536 673.25 429.5 C673.930625 428.63375 673.930625 428.63375 674.625 427.75 C678.75 422.5 678.75 422.5 680.12426758 420.75097656 C681.04343313 419.58109984 681.96254095 418.41117777 682.8815918 417.24121094 C685.13456094 414.37328843 687.38843723 411.5060901 689.64453125 408.640625 C696.52771455 399.8950374 703.36593219 391.11491332 710.19309998 382.32554626 C712.03131278 379.95969931 713.87048502 377.5946013 715.70996094 375.22973633 C716.32933533 374.43344315 716.94870972 373.63714996 717.58685303 372.81672668 C718.05319153 372.21720688 718.51953003 371.61768707 719 371 C685.84109952 368.2433885 652.67199402 365.65902679 619.49017715 363.19456124 C613.28720726 362.73338489 607.08440705 362.26993721 600.8815918 361.8066864 C585.25454349 360.63995627 569.62728136 359.47610381 554 358.3125 C548.65738601 357.91467668 543.31477503 357.51681287 537.97216797 357.11889648 C537.31208205 357.06973386 536.65199614 357.02057123 535.97190762 356.96991882 C524.95599583 356.14942234 513.94018092 355.327632 502.92443085 354.50496739 C495.58355988 353.95684127 488.2425737 353.4102934 480.90149212 352.8649956 C476.35915895 352.52726793 471.81692694 352.18819477 467.27472115 351.8487587 C465.17572812 351.69218149 463.07669328 351.53616367 460.97761345 351.38075447 C458.10841465 351.16825173 455.23937357 350.95372847 452.37036133 350.73872375 C451.5467555 350.67821895 450.72314968 350.61771415 449.87458611 350.55537587 C444.56661513 350.15482616 439.28776343 349.61306295 434 349 C435.60876261 353.08251722 437.21802819 357.16483496 438.828125 361.24682617 C440.19669477 364.71649828 441.56365149 368.18680034 442.9296875 371.6574707 C445.9993979 379.44963426 449.07778866 387.23647194 452.2578125 394.984375 C452.72719238 396.13365479 453.19657227 397.28293457 453.68017578 398.46704102 C454.54299139 400.57236855 455.41345198 402.67458341 456.29248047 404.77319336 C456.67033691 405.69753174 457.04819336 406.62187012 457.4375 407.57421875 C457.76621094 408.36401123 458.09492188 409.15380371 458.43359375 409.9675293 C459 412 459 412 458 415 C455.66063843 416.03457358 453.43792596 416.861267 451.01171875 417.63671875 C450.2903624 417.87717926 449.56900604 418.11763977 448.82579041 418.36538696 C446.45043847 419.15250213 444.06952359 419.92083188 441.6875 420.6875 C440.03490619 421.22719042 438.38240034 421.76715029 436.72998047 422.30737305 C398.41243397 434.76443407 359.36797188 444.51465751 319.3125 449.25 C318.61274048 449.33317474 317.91298096 449.41634949 317.1920166 449.50204468 C300.3100375 451.48249387 283.55177753 452.20987092 266.5625 452.1875 C265.63769836 452.18656342 264.71289673 452.18562683 263.7600708 452.18466187 C249.09278854 452.15257511 234.56948241 451.83952412 220 450 C218.80391113 449.84934082 217.60782227 449.69868164 216.37548828 449.54345703 C197.10657938 447.01363812 178.31603327 443.1394171 159.58007812 437.98339844 C157.29420091 437.35549927 155.00411297 436.74260605 152.70898438 436.14941406 C133.93488948 431.26767137 133.93488948 431.26767137 128.1484375 421.80859375 C127.82069336 421.21804199 127.49294922 420.62749023 127.15527344 420.01904297 C125.78753325 417.62867708 124.29781071 415.33910249 122.7890625 413.03515625 C106.35666636 387.87227257 91.59716768 361.79065695 78 335 C77.42088867 333.85934082 76.84177734 332.71868164 76.24511719 331.54345703 C61.1550253 301.67746922 48.73688264 270.68268109 38 239 C37.62713867 237.91122559 37.25427734 236.82245117 36.87011719 235.70068359 C17.9679777 180.16439757 7.21342128 122.35874437 1.76171875 64.0390625 C1.66684425 63.04411522 1.66684425 63.04411522 1.5700531 62.02906799 C-0.30505121 41.23982762 0 20.98815493 0 0 Z " fill="#3C63AD" transform="translate(2,2)"></path><path d="M0 0 C0.84433594 0.63292969 1.68867188 1.26585937 2.55859375 1.91796875 C13.571474 10.46396382 23.61124878 19.84009936 32 31 C32.39783691 31.52287598 32.79567383 32.04575195 33.20556641 32.58447266 C49.96876355 54.73700825 60.97078284 79.8718273 66.75 107 C66.94867676 107.92361328 67.14735352 108.84722656 67.35205078 109.79882812 C70.36993209 124.7666919 71.37873732 139.76058563 71.3125 155 C71.31200653 155.79017517 71.31151306 156.58035034 71.31100464 157.39447021 C71.2486722 190.25398339 71.2486722 190.25398339 67 203 C-28.04 203 -123.08 203 -221 203 C-215.86248319 218.41255043 -211.36141067 229.77026131 -200 241 C-199.26265625 241.75925781 -198.5253125 242.51851563 -197.765625 243.30078125 C-177.0683006 263.40774573 -146.87712126 269.2345727 -119.02197266 269.25146484 C-82.67811867 268.72535231 -44.84801915 258.86657242 -16 236 C-12.27270824 239.04268715 -8.85506136 242.04130638 -5.734375 245.70703125 C-2.0422749 249.98085435 1.80058314 254.09114849 5.6875 258.1875 C11.01194466 263.82117721 16.30949805 269.47641416 21.55688477 275.18188477 C25.3920534 279.34924869 29.2556059 283.48941576 33.125 287.625 C38.80651609 293.69971953 44.42803433 299.82461869 50 306 C42.82275388 324.2159346 7.869691 339.79033025 -9.00244141 347.34423828 C-80.03802181 377.80067439 -160.54259728 380.42678678 -233 353 C-276.48290552 335.58186028 -313.05635397 301.25769467 -332.15673828 258.40478516 C-334.70356204 252.36018743 -336.92313013 246.22017308 -339 240 C-339.28214355 239.15888672 -339.56428711 238.31777344 -339.85498047 237.45117188 C-357.38585342 183.93913776 -354.25214143 119.02158407 -329.125 68.375 C-316.65199661 44.22736251 -299.6382157 21.60961628 -278 5 C-277.06414063 4.22527344 -276.12828125 3.45054687 -275.1640625 2.65234375 C-204.99965759 -54.25477643 -86.14806247 -54.18349345 0 0 Z M-202.19140625 86.23828125 C-212.52116873 98.26608688 -220 114.98164277 -220 131 C-163.24 131 -106.48 131 -48 131 C-51.1027567 109.28070308 -57.06936176 91.42229102 -74.44140625 76.96875 C-91.97318741 64.13649926 -111.84231878 59.58850821 -133.25 59.6875 C-134.52762207 59.69313965 -135.80524414 59.6987793 -137.12158203 59.70458984 C-162.1519495 60.02610417 -184.38948818 68.05557349 -202.19140625 86.23828125 Z " fill="#3C63AD" transform="translate(4210,219)"></path><path d="M0 0 C59.09806648 -1.69537843 117.24043363 13.5962835 161.12451172 54.328125 C162.06552734 55.23175781 163.00654297 56.13539063 163.97607422 57.06640625 C164.53367432 57.60136719 165.09127441 58.13632813 165.66577148 58.6875 C201.06987728 93.27844589 214.64170985 143.97591448 215.97607422 192.06640625 C216.10961872 208.64500242 215.16960199 225.76645656 211.97607422 242.06640625 C210.97607422 243.06640625 210.97607422 243.06640625 209.01162332 243.19060475 C208.14016517 243.19022503 207.26870701 243.18984531 206.37084103 243.18945408 C204.86825266 243.19244065 204.86825266 243.19244065 203.33530897 243.19548756 C202.22151965 243.19257472 201.10773033 243.18966188 199.96018982 243.18666077 C198.78735587 243.18751519 197.61452191 243.18836962 196.40614754 243.18924993 C193.13614063 243.1906181 189.86617282 243.18747068 186.59617054 243.18247187 C183.07536448 243.17817064 179.55456039 243.17961356 176.03375244 243.18037415 C169.92886862 243.18089959 163.82399545 243.17775067 157.7191143 243.17213631 C148.8923809 243.16402406 140.06565266 243.16140637 131.23891593 243.16014832 C116.91960965 243.15795736 102.60030905 243.1512961 88.28100586 243.1418457 C74.36759469 243.13267271 60.45418506 243.12559132 46.54077148 243.12133789 C45.68376648 243.12107517 44.82676147 243.12081244 43.94378661 243.12054176 C39.64462881 243.11923676 35.34547099 243.11797304 31.04631317 243.11672986 C-4.64377053 243.10635589 -40.33384763 243.0887364 -76.02392578 243.06640625 C-75.26569541 245.60398333 -74.49887774 248.1384322 -73.72705078 250.671875 C-73.51580566 251.38210815 -73.30456055 252.09234131 -73.08691406 252.82409668 C-67.01801689 272.61620234 -52.29531705 286.62430977 -34.52001953 296.25 C1.43450383 314.93028309 45.44288656 311.61630557 83.05444336 299.98046875 C97.47448092 295.29092315 110.49271155 288.86773505 122.90185547 280.16796875 C125.23874842 278.57044854 127.40621967 277.22125447 129.97607422 276.06640625 C130.67990234 276.83082031 131.38373047 277.59523438 132.10888672 278.3828125 C137.71152661 284.4626003 143.33045801 290.52649055 148.97607422 296.56640625 C153.81568944 301.74414607 158.63513262 306.93960869 163.43701172 312.15234375 C166.67557546 315.66507162 169.92800905 319.16444542 173.19042969 322.6550293 C174.37303987 323.9209105 175.55437347 325.1879856 176.734375 326.45629883 C179.64377112 329.58209296 182.5686352 332.68969649 185.53076172 335.765625 C186.09021484 336.3534375 186.64966797 336.94125 187.22607422 337.546875 C188.28321204 338.65737795 189.3479713 339.76069183 190.42138672 340.85546875 C193.3183487 343.91956316 193.97607422 344.657199 193.97607422 349.06640625 C192.02685547 351.07421875 192.02685547 351.07421875 189.28857422 353.19140625 C188.28181641 353.97644531 187.27505859 354.76148438 186.23779297 355.5703125 C185.70202637 355.97910645 185.16625977 356.38790039 184.61425781 356.80908203 C182.99582019 358.051251 181.40036974 359.31826614 179.80810547 360.59375 C124.81449626 404.33234337 49.57085083 417.65188846 -18.93920898 410.17553711 C-74.41895947 403.58286299 -128.31244056 381.59096668 -164.00195312 337.06054688 C-171.3320806 327.62895682 -177.42537828 317.60498646 -183.02392578 307.06640625 C-183.36117676 306.43589355 -183.69842773 305.80538086 -184.04589844 305.15576172 C-194.18044922 285.85513158 -199.55229177 264.45686992 -203.02392578 243.06640625 C-203.15524902 242.28120605 -203.28657227 241.49600586 -203.421875 240.68701172 C-212.0555257 186.4512172 -200.23098578 127.94531239 -168.80908203 82.890625 C-136.28870913 38.49120088 -89.46320807 11.74240482 -35.33251953 3.125 C-23.57388955 1.37544606 -11.8730748 0.38956289 0 0 Z M-57.99658203 126.69140625 C-68.98385913 139.56282143 -73.9559742 154.52279361 -76.02392578 171.06640625 C-19.26392578 171.06640625 37.49607422 171.06640625 95.97607422 171.06640625 C95.08705474 161.12920625 95.08705474 161.12920625 92.85107422 151.62890625 C92.63225586 150.90372803 92.4134375 150.1785498 92.18798828 149.43139648 C88.58847638 138.13986245 82.29034895 129.40980278 73.97607422 121.06640625 C73.37408203 120.44121094 72.77208984 119.81601562 72.15185547 119.171875 C53.77023566 101.5079757 27.53056654 99.42587123 3.43310547 99.7578125 C-20.59158422 100.48711723 -41.23705741 109.23483087 -57.99658203 126.69140625 Z " fill="#2D3E50" transform="translate(5291.02392578125,178.93359375)"></path><path d="M0 0 C0.9377124 0.00215515 1.8754248 0.0043103 2.84155273 0.00653076 C63.27810825 0.22847871 120.64049885 18.64456149 164.20947266 61.55712891 C194.92513179 92.75882277 211.37853169 135.31423046 215.9375 178.3125 C216.04964844 179.34375 216.16179688 180.375 216.27734375 181.4375 C219.61060154 218.69692953 215.68120271 257.73208584 200.9375 292.3125 C200.60379395 293.0967334 200.27008789 293.8809668 199.92626953 294.68896484 C194.7355779 306.6650641 188.4712406 317.65996718 180.9375 328.3125 C180.51807129 328.90836914 180.09864258 329.50423828 179.66650391 330.11816406 C149.23288449 372.63660126 99.81022844 397.81812311 49.125 406.5625 C-13.51052175 416.63635437 -81.95760378 409.01736558 -134.95507812 371.99023438 C-141.63174884 367.16045831 -147.86731668 361.85144332 -153.921875 356.265625 C-155.65591258 354.68347392 -157.40949382 353.20303119 -159.25 351.75 C-162.92906507 348.56147694 -165.9665414 345.06211588 -169.0625 341.3125 C-169.88878906 340.32378906 -170.71507813 339.33507812 -171.56640625 338.31640625 C-208.77485083 292.95894923 -219.58096699 234.18058628 -214.28881836 176.87792969 C-208.7675297 126.73741527 -186.3578617 79.11614738 -146.91796875 46.85546875 C-119.0987046 24.79542548 -85.75731633 10.55066453 -50.9375 4.0625 C-50.12877441 3.91135742 -49.32004883 3.76021484 -48.48681641 3.60449219 C-32.38383568 0.81192203 -16.31905239 -0.06801424 0 0 Z M-59.0625 127.3125 C-59.73667969 127.90417969 -60.41085938 128.49585938 -61.10546875 129.10546875 C-80.34401019 147.11520116 -89.23861275 173.13482336 -90.28515625 199.00390625 C-90.97853062 226.31530198 -84.88277245 253.65929666 -66.0625 274.3125 C-65.4130542 275.03348877 -65.4130542 275.03348877 -64.75048828 275.76904297 C-50.46294019 291.44904266 -30.75545155 302.1232766 -9.28027344 303.48950195 C19.13575809 304.09869429 42.20972626 299.70260564 63.63671875 279.57421875 C64.39597656 278.82785156 65.15523437 278.08148438 65.9375 277.3125 C66.62457031 276.63832031 67.31164063 275.96414063 68.01953125 275.26953125 C78.51239768 264.2385691 84.78393784 250.80150933 88.9375 236.3125 C89.2778125 235.15492188 89.618125 233.99734375 89.96875 232.8046875 C96.4516803 205.49234227 93.04126235 173.31313143 79 148.9375 C65.73360792 128.18311858 47.33884682 113.41750467 23.1875 107.5 C-6.13154486 101.47311049 -36.40164436 107.15647123 -59.0625 127.3125 Z " fill="#3C63AD" transform="translate(3159.0625,179.6875)"></path><path d="M0 0 C0.93638306 0.00182281 1.87276611 0.00364563 2.83752441 0.00552368 C18.04748393 0.05516707 32.91992206 0.7028881 47.9375 3.3125 C49.35554932 3.55395752 49.35554932 3.55395752 50.80224609 3.80029297 C89.1841364 10.60819002 126.76454301 26.71405634 155.21875 53.76953125 C157.9059113 56.34866527 157.9059113 56.34866527 160.84375 58.63671875 C194.09928917 86.02995493 211.10657814 135.18921799 215.6015625 176.4921875 C219.54668188 221.35645205 215.37933022 268.39611315 192.9375 308.3125 C192.27121039 309.54116549 191.6058525 310.77033667 190.94140625 312 C186.81573279 319.5292032 182.19795474 326.53034284 176.9375 333.3125 C176.28523438 334.16972656 175.63296875 335.02695312 174.9609375 335.91015625 C156.16384249 359.81133136 132.17809969 376.41129531 104.9375 389.3125 C103.87917969 389.82425781 102.82085938 390.33601563 101.73046875 390.86328125 C83.51341841 399.19685175 63.69314844 404.31043647 43.9375 407.3125 C43.21385254 407.42287598 42.49020508 407.53325195 41.74462891 407.64697266 C-20.43421679 416.82706264 -87.75902962 406.57471611 -139.1875 368.9375 C-177.33811031 339.45982952 -201.55657293 300.49445493 -211.3125 253.1875 C-211.46364258 252.46183838 -211.61478516 251.73617676 -211.77050781 250.98852539 C-214.69438038 235.80649857 -215.44226208 220.60814187 -215.375 205.1875 C-215.37284485 204.29208496 -215.3706897 203.39666992 -215.36846924 202.47412109 C-215.19621583 157.71611333 -204.14947283 113.0552865 -176.0625 77.3125 C-175.39476562 76.42433594 -174.72703125 75.53617187 -174.0390625 74.62109375 C-159.4973192 55.92854633 -141.45576957 40.94165511 -120.89501953 29.34619141 C-119.68869125 28.66572326 -118.48638861 27.97806044 -117.28857422 27.28271484 C-96.96090271 15.49863912 -73.9554675 8.34813984 -50.9375 4.0625 C-50.12869385 3.91135742 -49.3198877 3.76021484 -48.48657227 3.60449219 C-32.38336031 0.8116086 -16.31919322 -0.06640474 0 0 Z M-59.0625 127.3125 C-59.84238281 128.01117188 -60.62226562 128.70984375 -61.42578125 129.4296875 C-80.31501501 147.2423328 -89.47331612 172.56900741 -90.28515625 198.15625 C-90.87287405 227.92028403 -84.37394744 255.62671865 -63.515625 277.82373047 C-47.29998931 294.43712873 -25.9276846 303.36494265 -2.76538086 303.69335938 C24.33331366 303.64473368 45.79752319 296.61687709 65.75 277.875 C86.93668622 255.38371488 92.65523746 227.63164079 92.25390625 197.625 C91.53487087 174.39925454 83.53723405 151.7591971 67.9375 134.3125 C67.19886719 133.47976563 66.46023438 132.64703125 65.69921875 131.7890625 C50.57886974 115.70358483 28.99543305 106.23660284 6.9375 105.3125 C5.61298828 105.25255859 5.61298828 105.25255859 4.26171875 105.19140625 C-19.33609162 104.66006482 -41.51146173 111.25806189 -59.0625 127.3125 Z " fill="#3C63AD" transform="translate(1498.0625,179.6875)"></path><path d="M0 0 C1.36581207 0.00273422 1.36581207 0.00273422 2.75921631 0.00552368 C17.81082158 0.05597728 32.50900044 0.77488986 47.375 3.3125 C48.37015625 3.47878906 49.3653125 3.64507812 50.390625 3.81640625 C90.62885408 10.78071513 128.78494032 27.83729344 158.375 56.3125 C159.12644287 57.025271 159.12644287 57.025271 159.89306641 57.75244141 C194.5291333 90.7248125 215.3226878 139.43181503 216.55200195 187.24194336 C216.57807821 188.96200045 216.59827844 190.68215443 216.61328125 192.40234375 C216.6230751 193.33643066 216.63286896 194.27051758 216.64295959 195.23291016 C216.81235387 215.57455947 216.77577839 235.35158739 212.375 255.3125 C212.05354004 256.80330078 212.05354004 256.80330078 211.72558594 258.32421875 C201.29657674 305.26235039 174.15099053 347.64916811 133.5 373.9375 C131.13954007 375.42032781 128.75907349 376.86805863 126.375 378.3125 C125.79121582 378.67553223 125.20743164 379.03856445 124.60595703 379.41259766 C70.53503715 412.85837539 -2.474625 417.86129986 -63.37451172 403.671875 C-89.02411046 397.25130962 -114.20701693 387.00277209 -135.625 371.3125 C-136.66527344 370.55582031 -137.70554688 369.79914063 -138.77734375 369.01953125 C-176.08482764 341.36476005 -200.74186517 301.5828216 -210.375 256.25 C-210.57375732 255.31784668 -210.77251465 254.38569336 -210.97729492 253.42529297 C-214.20747084 237.34502588 -214.99982997 221.54834788 -214.9375 205.1875 C-214.93567719 204.19459961 -214.93385437 203.20169922 -214.93197632 202.17871094 C-214.88724483 187.71076975 -214.54284857 173.53167423 -211.625 159.3125 C-211.45339355 158.44447754 -211.28178711 157.57645508 -211.10498047 156.68212891 C-204.30307251 123.14671676 -190.06098638 93.15522129 -167.625 67.3125 C-167.15642578 66.76948242 -166.68785156 66.22646484 -166.20507812 65.66699219 C-161.05684241 59.73792827 -155.74050836 54.23917924 -149.625 49.3125 C-148.69300781 48.55453125 -147.76101563 47.7965625 -146.80078125 47.015625 C-118.87298933 24.7050128 -86.00252691 10.95855794 -51.0625 4.0625 C-49.93328125 3.83578613 -49.93328125 3.83578613 -48.78125 3.60449219 C-32.66442331 0.63454451 -16.35030901 -0.06866716 0 0 Z M-61.625 130.3125 C-62.22828125 130.84101563 -62.8315625 131.36953125 -63.453125 131.9140625 C-79.35926517 146.40797527 -87.40713093 169.40116304 -89.625 190.3125 C-91.08753063 224.43629914 -85.3307145 251.83788016 -62.88671875 278.3671875 C-49.70340746 292.56459966 -28.91654034 302.41884835 -9.6875 303.47363281 C9.59120564 304.00186894 9.59120564 304.00186894 28.375 300.3125 C29.46296875 299.96058594 30.5509375 299.60867188 31.671875 299.24609375 C54.86246684 290.99873539 72.7604783 274.46558881 83.375 252.3125 C95.22774874 224.35848478 96.12596661 191.57266053 85.87890625 162.97265625 C81.29549248 151.81769859 75.54418719 142.25970502 67.375 133.3125 C66.71628906 132.58417969 66.05757812 131.85585938 65.37890625 131.10546875 C48.59954738 113.44831646 25.01923123 105.69742045 1.125 105 C-23.45908509 105.51279687 -43.76842045 113.25638781 -61.625 130.3125 Z " fill="#2D3E50" transform="translate(5767.625,179.6875)"></path><path d="M0 0 C0.77406693 -0.00705963 1.54813385 -0.01411926 2.34565735 -0.02139282 C49.48972919 -0.3536614 89.75654119 9.94749092 124.14453125 43.69140625 C146.29990029 66.09983843 158.77966488 95.88990605 165.296875 126.265625 C165.49571289 127.18561279 165.69455078 128.10560059 165.89941406 129.0534668 C169.38396194 146.25057721 169.83181957 163.25163679 169.77392578 180.73681641 C169.77336041 183.1532338 169.77368068 185.56965153 169.77481079 187.98606873 C169.77532154 193.81901977 169.76673123 199.65190397 169.75393547 205.48483981 C169.73952826 212.28281325 169.73663565 219.08077776 169.73435913 225.87876432 C169.73000133 237.99796623 169.7167447 250.11714095 169.69775391 262.23632812 C169.67934519 273.99641793 169.66523622 285.75650025 169.65673828 297.51660156 C169.65620229 298.25106585 169.65566629 298.98553014 169.65511405 299.74225092 C169.65048724 306.13283428 169.64618217 312.52341786 169.64190865 318.91400146 C169.6231501 346.34373494 169.58329152 373.77339612 169.546875 401.203125 C128.296875 401.203125 87.046875 401.203125 44.546875 401.203125 C44.49789062 385.27933594 44.44890625 369.35554688 44.3984375 352.94921875 C44.3630477 342.85481231 44.32716562 332.76041159 44.2890625 322.66601562 C44.26906836 317.36108449 44.2491731 312.05615301 44.22949219 306.7512207 C44.22702075 306.08641443 44.22454931 305.42160816 44.22200298 304.73665625 C44.1848372 294.69464792 44.15340666 284.65263236 44.125 274.6105957 C44.09198658 262.94329809 44.05210406 251.27604728 44.00408494 239.60880142 C43.97891273 233.43512537 43.95710433 227.26148 43.94353104 221.08776665 C43.93062614 215.2675437 43.90848215 209.44742646 43.87949181 203.62726212 C43.87048153 201.50016109 43.86474127 199.37304308 43.86266136 197.245924 C43.83285816 171.37773673 41.45882598 144.90450406 22.546875 125.203125 C7.88532596 111.36024113 -10.27113863 106.67621665 -30.0546875 106.98828125 C-49.69909956 107.69393728 -69.58135292 114.89421724 -83.453125 129.203125 C-104.13661458 151.47452028 -106.74233214 179.6624193 -106.77197266 208.6640625 C-106.78129152 210.77477392 -106.79146304 212.88548172 -106.80241394 214.9961853 C-106.82950736 220.6768672 -106.84480147 226.35752459 -106.85784197 232.03825378 C-106.87356376 237.99330426 -106.90032472 243.94830535 -106.9258728 249.90332031 C-106.97250138 261.15796316 -107.00932215 272.41261546 -107.04254568 283.66730499 C-107.08806011 298.89133518 -107.1488744 314.11530396 -107.20879364 329.33928299 C-107.30267505 353.29386607 -107.3762435 377.24846735 -107.453125 401.203125 C-148.703125 401.203125 -189.953125 401.203125 -232.453125 401.203125 C-232.453125 271.513125 -232.453125 141.823125 -232.453125 8.203125 C-196.483125 8.203125 -160.513125 8.203125 -123.453125 8.203125 C-121.143125 21.403125 -118.833125 34.603125 -116.453125 48.203125 C-115.958125 50.183125 -115.958125 50.183125 -115.453125 52.203125 C-114.66550781 51.38070312 -113.87789062 50.55828125 -113.06640625 49.7109375 C-83.5949877 19.32925784 -42.68956221 0.26162185 0 0 Z " fill="#3C63AD" transform="translate(2018.453125,179.796875)"></path><path d="M0 0 C-3.84380896 7.90533873 -7.95519894 15.56519222 -12.4375 23.125 C-13.67512797 25.22878512 -14.91208362 27.33296587 -16.1484375 29.4375 C-16.78233398 30.51515625 -17.41623047 31.5928125 -18.06933594 32.703125 C-21.26452496 38.15935066 -24.41095152 43.64349547 -27.5625 49.125 C-32.4580122 57.61647219 -37.36172832 66.10310466 -42.3125 74.5625 C-42.857854 75.50303223 -43.40320801 76.44356445 -43.96508789 77.41259766 C-44.4677417 78.26772949 -44.97039551 79.12286133 -45.48828125 80.00390625 C-45.92696533 80.75486572 -46.36564941 81.5058252 -46.81762695 82.27954102 C-48 84 -48 84 -50 85 C-52.39299426 83.9011761 -54.68197248 82.7411703 -57 81.5 C-97.08447228 60.90556133 -150.79524137 52.12202157 -194.71484375 64.8046875 C-201.98978182 67.45169232 -207.67566216 71.5790135 -212 78 C-214.27476527 83.48011632 -214.41585423 88.30535101 -213 94 C-209.18306395 101.63387209 -203.20802896 104.75646948 -195.5 107.5625 C-180.31392671 112.47620065 -164.32977322 114.02922556 -148.53051758 115.69104004 C-98.93440098 120.90801198 -43.39748456 132.77855352 -9.6875 172.875 C9.77806577 198.56954681 15.53744995 230.70131776 11.23071289 262.33520508 C6.15465098 293.2270657 -10.24161427 319.02904181 -35.453125 337.5546875 C-41.64424816 341.92877508 -48.27495749 345.52381839 -55 349 C-55.60537598 349.31565918 -56.21075195 349.63131836 -56.83447266 349.95654297 C-81.36804826 362.57015458 -109.60790512 368.93206502 -137 371 C-138.02585205 371.08467529 -139.0517041 371.16935059 -140.10864258 371.2565918 C-150.72350552 372.06156118 -161.29649521 372.20070573 -171.9375 372.1875 C-172.84074005 372.18689575 -173.7439801 372.1862915 -174.67459106 372.18566895 C-188.86674322 372.15996278 -202.90541719 371.79847659 -217 370 C-218.53720703 369.80664062 -218.53720703 369.80664062 -220.10546875 369.609375 C-264.79002031 363.78798589 -316.23757369 349.94416933 -352 321 C-353 318 -353 318 -352.12646484 315.82128906 C-351.42577881 314.55623535 -351.42577881 314.55623535 -350.7109375 313.265625 C-350.18822266 312.31107422 -349.66550781 311.35652344 -349.12695312 310.37304688 C-348.54880859 309.34244141 -347.97066406 308.31183594 -347.375 307.25 C-346.78396484 306.17814453 -346.19292969 305.10628906 -345.58398438 304.00195312 C-341.07940638 295.85740861 -336.49195115 287.75870451 -331.8894043 279.66918945 C-327.33016917 271.63985073 -322.92971586 263.52977726 -318.55200195 255.40039062 C-314.48655987 247.86255321 -310.31207861 240.399579 -306 233 C-302.58716024 234.31073381 -299.36937795 235.79152539 -296.140625 237.50390625 C-251.06763234 261.0126715 -183.35507202 280.86940111 -132.5 265.1875 C-125.3898761 262.53446869 -119.89703532 260.22203225 -116 253.4375 C-113.4702411 247.69194588 -113.01739332 242.18259599 -114 236 C-115.08066111 233.33313245 -116.34186839 231.38356419 -118 229 C-118 228.34 -118 227.68 -118 227 C-118.85658203 226.57847656 -118.85658203 226.57847656 -119.73046875 226.1484375 C-121.18573422 225.41203811 -122.62774516 224.64846271 -124.05078125 223.8515625 C-140.05236627 215.17367356 -159.00646404 213.79994322 -176.8359375 212.32421875 C-177.51863205 212.26769135 -178.2013266 212.21116394 -178.90470886 212.15292358 C-179.59607437 212.09569122 -180.28743988 212.03845886 -180.99975586 211.97949219 C-230.97707042 207.8290572 -280.86155246 193.79021724 -314.84765625 154.703125 C-334.87998752 129.54455287 -339.92759184 99.52349998 -336.68652344 67.94580078 C-333.91084259 47.69610865 -325.43231949 28.41949784 -312 13 C-311.31164063 12.17886719 -310.62328125 11.35773438 -309.9140625 10.51171875 C-279.07181661 -25.28532838 -229.36463869 -38.06080913 -184.05151367 -41.48803711 C-120.77499646 -45.71249577 -54.27155688 -33.82975031 0 0 Z " fill="#2D3E50" transform="translate(5037,219)"></path><path d="M0 0 C0 36.96 0 73.92 0 112 C32.34 112 64.68 112 98 112 C98 145 98 178 98 212 C65.66 212 33.32 212 0 212 C0.09069611 239.02937415 0.09069611 239.02937415 0.20898438 266.05859375 C0.263376 277.08836347 0.314793 288.11808763 0.34643555 299.14794922 C0.36949944 307.18260026 0.40299022 315.21713073 0.44870156 323.25168598 C0.47252127 327.50101084 0.4913234 331.75021712 0.49761391 335.99960709 C0.50371617 340.01010002 0.52389825 344.02029 0.55427551 348.03067017 C0.56297424 349.49219524 0.56679555 350.95376004 0.56500816 352.41530991 C0.55281347 367.005301 1.91332115 382.41551559 12.0625 393.75 C22.40590025 403.28215317 35.2416263 405.60272341 48.765625 405.2421875 C60.52410413 404.69890919 70.95194814 401.61971776 81.79418945 397.24975586 C82.55948975 396.94561768 83.32479004 396.64147949 84.11328125 396.328125 C85.13095581 395.90901855 85.13095581 395.90901855 86.16918945 395.48144531 C88 395 88 395 91 396 C92.01478577 398.14479065 92.01478577 398.14479065 92.92602539 401.02172852 C93.27421829 402.1005983 93.62241119 403.17946808 93.9811554 404.29103088 C94.53382332 406.06702919 94.53382332 406.06702919 95.09765625 407.87890625 C95.48870041 409.10210068 95.87974457 410.3252951 96.28263855 411.58555603 C97.33908836 414.89130869 98.38049555 418.20161783 99.4186554 421.51315308 C100.48655468 424.91225916 101.56670509 428.30746718 102.64550781 431.703125 C104.33959307 437.04081724 106.02543318 442.3810455 107.70556641 447.72314453 C109.61842806 453.80067775 111.55777654 459.86917092 113.51171875 465.93359375 C114.21401654 468.12661239 114.91495895 470.32005479 115.61471558 472.5138855 C116.03612815 473.83136407 116.46003424 475.14804782 116.88650513 476.46389771 C117.45876563 478.23365834 118.01887769 480.0073342 118.578125 481.78125 C118.88137695 482.73064453 119.18462891 483.68003906 119.49707031 484.65820312 C120 487 120 487 119 490 C117.01660156 491.16333008 117.01660156 491.16333008 114.390625 492.26953125 C113.41915527 492.68058105 112.44768555 493.09163086 111.44677734 493.51513672 C110.39184082 493.9432666 109.3369043 494.37139648 108.25 494.8125 C106.62312256 495.47789795 106.62312256 495.47789795 104.96337891 496.15673828 C57.11568208 515.30838463 -2.487602 520.05330653 -50.8125 500.25 C-63.58144595 494.77369409 -74.60887231 487.22782444 -85 478 C-85.84175781 477.25363281 -86.68351562 476.50726562 -87.55078125 475.73828125 C-116.81220047 448.20615275 -123.654494 404.77291392 -124.91318893 366.50627899 C-125.2137415 354.36702976 -125.12290057 342.21813101 -125.10139394 330.07611132 C-125.0950481 325.8748291 -125.09454788 321.67354579 -125.09336853 317.47225952 C-125.09028776 309.55397512 -125.08211928 301.63570488 -125.07201904 293.71742666 C-125.05864031 282.99099144 -125.05333165 272.26455222 -125.04751682 261.53811073 C-125.03817635 244.69206325 -125.01823604 227.84604565 -125 211 C-146.78 211 -168.56 211 -191 211 C-191 178 -191 145 -191 111 C-169.22 111 -147.44 111 -125 111 C-125 78.99 -125 46.98 -125 14 C-122.64020557 12.82010278 -120.80626017 12.66713274 -118.17932129 12.38621521 C-117.16134964 12.27545654 -116.14337799 12.16469788 -115.09455872 12.05058289 C-113.973452 11.93261856 -112.85234528 11.81465424 -111.69726562 11.69311523 C-110.52000412 11.56617279 -109.34274261 11.43923035 -108.12980652 11.30844116 C-104.89671799 10.9606292 -101.66328255 10.61628653 -98.42965508 10.27352786 C-95.04970279 9.91449593 -91.67020395 9.55124508 -88.29064941 9.18849182 C-82.61477533 8.57986852 -76.93859915 7.97413317 -71.26220703 7.37036133 C-63.97107825 6.59482537 -56.6804431 5.81474771 -49.38996124 5.03315639 C-43.1290485 4.36195786 -36.86793617 3.69262843 -30.6067791 3.02371335 C-28.59084901 2.80828374 -26.57494206 2.59263843 -24.55903625 2.37698174 C-20.80705662 1.97600563 -17.05492373 1.57649848 -13.30273438 1.17749023 C-12.18162766 1.05750168 -11.06052094 0.93751312 -9.90544128 0.81388855 C-8.88746964 0.70594971 -7.86949799 0.59801086 -6.82067871 0.48680115 C-5.93282433 0.3922335 -5.04496994 0.29766584 -4.13021088 0.20023251 C-2 0 -2 0 0 0 Z " fill="#3C63AD" transform="translate(2436,77)"></path><path d="M0 0 C1.41539062 1.21429688 1.41539062 1.21429688 2.859375 2.453125 C9.86170213 8.58510638 9.86170213 8.58510638 11 12 C10.05859375 13.515625 10.05859375 13.515625 8.4375 15.25 C7.79425781 15.94867188 7.15101563 16.64734375 6.48828125 17.3671875 C5.66714844 18.23601562 4.84601563 19.10484375 4 20 C2.90937945 21.16854632 1.81959989 22.33787787 0.73046875 23.5078125 C-1.09156405 25.46340925 -2.91495856 27.41764893 -4.74243164 29.36816406 C-8.03244439 32.87995095 -11.29458419 36.4104145 -14.5 40 C-18.2734412 44.22400134 -22.12833772 48.36633784 -26 52.5 C-30.62315106 57.43666806 -35.19900794 62.40715927 -39.703125 67.453125 C-41.49143667 69.43608283 -43.29295304 71.40238351 -45.109375 73.359375 C-45.92027588 74.23311768 -45.92027588 74.23311768 -46.74755859 75.12451172 C-47.80611659 76.2631047 -48.86625529 77.40023082 -49.92822266 78.53564453 C-52.45350715 81.25214951 -54.85129087 83.97426674 -57 87 C-60.59216987 85.98970222 -62.82370532 84.36418086 -65.5 81.875 C-86.41929296 62.99661367 -116.07720431 55.68969346 -143.63671875 56.84765625 C-165.00290332 58.22498054 -184.47568443 65.1544309 -201 79 C-201.81855469 79.62648438 -202.63710937 80.25296875 -203.48046875 80.8984375 C-221.34399186 95.79855445 -230.25503608 119.98327315 -232.6875 142.5 C-232.81229147 144.332045 -232.91569126 146.16564621 -233 148 C-233.05285156 149.00804687 -233.10570312 150.01609375 -233.16015625 151.0546875 C-233.83486899 175.9897234 -227.79557356 202.52488602 -210.625 221.3125 C-208.78216222 223.24510895 -206.89976313 225.12161254 -205 227 C-204.19691406 227.81339844 -203.39382813 228.62679688 -202.56640625 229.46484375 C-193.65401986 238.02600309 -183.46881421 243.44138447 -171.875 247.375 C-170.82022461 247.73307739 -170.82022461 247.73307739 -169.74414062 248.09838867 C-142.8986144 256.61857692 -110.11798066 253.91513373 -85.01904297 240.97900391 C-77.57909276 236.92797929 -70.73536329 232.30037066 -64.23046875 226.86328125 C-60.92505987 224.10202024 -57.4653928 221.55548519 -54 219 C-42.29691007 230.53013786 -42.29691007 230.53013786 -38.5625 234.9375 C-35.3999004 238.65957668 -31.97029586 242.0686634 -28.5 245.5 C-24.44535194 249.50912858 -20.56021851 253.55864499 -16.87109375 257.91015625 C-13.85849309 261.27496075 -10.61427958 264.40545188 -7.40209961 267.57836914 C-4.07646572 270.87899435 -0.95746124 274.2778754 2.0703125 277.85546875 C5.21839519 281.35404648 8.61021126 284.61550627 12.00195312 287.87695312 C14.41850954 290.23767127 15.91519598 291.74558794 17 295 C11.08051207 301.22479103 4.73023972 306.67263347 -2 312 C-3.46566406 313.19109375 -3.46566406 313.19109375 -4.9609375 314.40625 C-54.65178612 353.95866351 -117.06481535 364.90985234 -179 358 C-231.3114885 351.47431923 -282.80311285 329.19209618 -316.44921875 287.3359375 C-337.36599357 260.42126353 -350.69567364 228.61067348 -356 195 C-356.17805176 193.88713623 -356.35610352 192.77427246 -356.53955078 191.62768555 C-358.23006511 179.82354461 -358.39851564 168.09817206 -358.375 156.1875 C-358.37445618 155.15086212 -358.37391235 154.11422424 -358.37335205 153.0461731 C-358.33403365 136.72478938 -357.60214199 120.98210642 -354 105 C-353.78569336 104.0399707 -353.57138672 103.07994141 -353.35058594 102.09082031 C-347.17284994 75.42853905 -335.85159779 49.64246526 -319 28 C-318.35417969 27.13246094 -317.70835937 26.26492188 -317.04296875 25.37109375 C-284.34598258 -16.87057478 -234.28837648 -41.19045668 -182.10693359 -48.609375 C-117.16914986 -56.77379854 -50.40772596 -43.6042292 0 0 Z " fill="#3C63AD" transform="translate(1240,230)"></path><path d="M0 0 C41.58 0 83.16 0 126 0 C126 183.81 126 367.62 126 557 C84.42 557 42.84 557 0 557 C0 373.19 0 189.38 0 0 Z " fill="#3C63AD" transform="translate(3665,24)"></path><path d="M0 0 C41.25 0 82.5 0 125 0 C125 183.81 125 367.62 125 557 C83.75 557 42.5 557 0 557 C0 373.19 0 189.38 0 0 Z " fill="#3C63AD" transform="translate(3447,24)"></path><path d="M0 0 C3.54392802 3.22813246 3.54392802 3.22813246 4.53515625 4.984375 C4.0763604 9.15071279 2.51489203 12.15489399 0.4296875 15.75390625 C-0.21677734 16.87732422 -0.86324219 18.00074219 -1.52929688 19.15820312 C-2.23682696 20.37118254 -2.94451328 21.58407085 -3.65234375 22.796875 C-4.38274689 24.06020859 -5.11255682 25.32388531 -5.84179688 26.58789062 C-8.03982816 30.3923637 -10.25092082 34.18913371 -12.46484375 37.984375 C-13.08182129 39.04317871 -13.69879883 40.10198242 -14.33447266 41.19287109 C-16.60417426 45.08587651 -18.87540456 48.97796342 -21.15283203 52.86645508 C-24.37141095 58.36810741 -27.56092623 63.88519794 -30.71875 69.421875 C-31.07818695 70.05206543 -31.4376239 70.68225586 -31.80795288 71.33154297 C-33.55791578 74.40162223 -35.30500405 77.47330502 -37.04882812 80.546875 C-40.4024517 86.44215632 -43.81474991 92.26752936 -47.46484375 97.984375 C-48.46902344 97.47648438 -49.47320312 96.96859375 -50.5078125 96.4453125 C-54.11376766 94.62636366 -57.72940053 92.8275131 -61.34912109 91.03613281 C-63.19109585 90.12045923 -65.02589403 89.19037704 -66.859375 88.2578125 C-88.96502058 77.41353353 -115.72722158 75.64199613 -139.15234375 83.234375 C-158.73607534 89.98704016 -173.22736378 102.7914168 -182.58935547 121.18017578 C-192.79361811 142.20903827 -193.59869457 165.70685701 -193.67016602 188.61425781 C-193.67976152 190.57659605 -193.68977254 192.5389323 -193.70016479 194.50126648 C-193.72703885 199.7958287 -193.74814238 205.09039968 -193.76816678 210.38499165 C-193.79013517 215.93032206 -193.81747042 221.47562603 -193.84422302 227.02093506 C-193.89400393 237.50718883 -193.93899653 247.99345738 -193.98224539 258.4797399 C-194.04100895 272.66016219 -194.10721677 286.84054963 -194.17299557 301.02094078 C-194.27634165 323.34206199 -194.36978262 345.66321341 -194.46484375 367.984375 C-235.71484375 367.984375 -276.96484375 367.984375 -319.46484375 367.984375 C-319.46484375 238.294375 -319.46484375 108.604375 -319.46484375 -25.015625 C-283.16484375 -25.015625 -246.86484375 -25.015625 -209.46484375 -25.015625 C-206.49484375 -9.835625 -203.52484375 5.344375 -200.46484375 20.984375 C-199.14484375 19.334375 -197.82484375 17.684375 -196.46484375 15.984375 C-173.07230808 -12.37902603 -145.58769007 -30.05570261 -108.52734375 -33.640625 C-69.39484863 -36.42135786 -30.43013828 -24.88423352 0 0 Z " fill="#3C63AD" transform="translate(4669.46484375,213.015625)"></path><path d="M0 0 C1.45212891 1.15242188 1.45212891 1.15242188 2.93359375 2.328125 C8.28974236 6.81510663 8.28974236 6.81510663 10 9 C9.62843638 12.98103875 8.15543375 15.84798665 6.1484375 19.26171875 C5.25415039 20.79602539 5.25415039 20.79602539 4.34179688 22.36132812 C3.69275391 23.45896484 3.04371094 24.55660156 2.375 25.6875 C1.69521082 26.84916922 1.01618752 28.01128693 0.33789062 29.17382812 C-1.07158303 31.58817446 -2.48432987 34.00055922 -3.89941406 36.41162109 C-7.13055556 41.92318642 -10.31266304 47.46303174 -13.5 53 C-14.73807936 55.14594982 -15.97636178 57.29178251 -17.21484375 59.4375 C-19.49263284 63.38542992 -21.76879443 67.33428819 -24.04275513 71.28442383 C-25.05947198 73.05045522 -26.07655658 74.81627431 -27.09375 76.58203125 C-28.36400873 78.78734155 -29.63359018 80.99304216 -30.90234375 83.19921875 C-34.53640788 89.50633895 -38.23098259 95.77255337 -42 102 C-43.54107422 101.22076172 -43.54107422 101.22076172 -45.11328125 100.42578125 C-73.63852123 86.04400388 -102.02181986 76.9867519 -133.6875 87.25 C-154.15849975 94.30860403 -168.43846932 107.81294624 -178 127 C-187.50750674 146.9228921 -188.13862252 169.05851008 -188.20532227 190.69995117 C-188.21491544 192.68184608 -188.22492634 194.66373901 -188.23532104 196.64562988 C-188.26222031 201.9981008 -188.28331042 207.35058039 -188.30332303 212.70308089 C-188.32527561 218.30714079 -188.3526187 223.91117438 -188.37937927 229.51521301 C-188.42918132 240.11483126 -188.4741662 250.71446421 -188.51740164 261.31411105 C-188.57614164 275.64620222 -188.64236101 289.97825873 -188.70815182 304.31031895 C-188.81153103 326.87352257 -188.90495004 349.43675619 -189 372 C-230.25 372 -271.5 372 -314 372 C-314 242.31 -314 112.62 -314 -21 C-278.03 -21 -242.06 -21 -205 -21 C-202.74932399 -14.24797196 -202.74932399 -14.24797196 -202.13037109 -11.09350586 C-201.99037689 -10.38935043 -201.85038269 -9.68519501 -201.70614624 -8.95970154 C-201.56335236 -8.21889847 -201.42055847 -7.4780954 -201.2734375 -6.71484375 C-201.12089508 -5.93613419 -200.96835266 -5.15742462 -200.81118774 -4.3551178 C-200.49159604 -2.7175207 -200.17403329 -1.07952646 -199.85839844 0.55883789 C-199.37559628 3.05941169 -198.8835213 5.55803933 -198.390625 8.05664062 C-198.08016881 9.653537 -197.77025447 11.25053882 -197.4609375 12.84765625 C-197.31409515 13.59048355 -197.16725281 14.33331085 -197.01596069 15.09864807 C-196.31385756 18.78012785 -195.82795693 22.24955304 -196 26 C-193.3878901 23.47251569 -191.09897285 20.91881756 -188.9375 18 C-169.60911037 -6.9794866 -142.95946449 -24.40097264 -111.21875 -28.6875 C-72.59525996 -33.37053559 -30.79964082 -24.7140406 0 0 Z " fill="#3C63AD" transform="translate(2925,209)"></path></svg>